<?xml version="1.0" standalone="no"?>
<!DOCTYPE svg PUBLIC "-//W3C//DTD SVG 20010904//EN"
 "http://www.w3.org/TR/2001/REC-SVG-20010904/DTD/svg10.dtd">
<svg version="1.0" xmlns="http://www.w3.org/2000/svg"
 width="1001.000000pt" height="330.000000pt" viewBox="0 0 1001.000000 330.000000"
 preserveAspectRatio="xMidYMid meet">

<g transform="translate(0.000000,330.000000) scale(0.100000,-0.100000)"
fill="#000000" stroke="none">
<path d="M2503 3187 c-11 -12 -181 -235 -378 -495 -214 -284 -355 -479 -351
-487 8 -23 148 -205 156 -205 5 0 140 174 301 388 161 213 337 445 392 515 94
122 98 129 88 158 -17 48 -49 87 -94 113 -64 36 -90 39 -114 13z"/>
<path d="M561 3101 c-10 -6 -61 -250 -157 -748 -79 -406 -144 -745 -144 -754
0 -13 27 -22 128 -42 70 -14 128 -24 128 -24 1 1 34 171 73 377 40 206 104
543 143 747 71 369 71 373 52 394 -34 37 -89 59 -151 59 -32 0 -64 -4 -72 -9z"/>
<path d="M1050 1268 c-300 -396 -596 -787 -657 -867 -126 -163 -133 -183 -92
-268 21 -43 82 -103 106 -103 37 0 143 132 717 892 343 454 627 831 631 837 4
7 -29 60 -75 121 -45 61 -83 110 -84 110 0 0 -246 -325 -546 -722z"/>
<path d="M3112 1530 c-51 -9 -95 -20 -98 -23 -7 -7 212 -1199 226 -1234 16
-39 85 -76 151 -81 91 -7 109 1 109 46 0 20 -53 324 -117 675 l-118 637 -30
-1 c-16 -1 -72 -9 -123 -19z"/>
</g>
</svg>
